<?xml version="1.0" encoding="UTF-8"?>
<!DOCTYPE svg PUBLIC "-//W3C//DTD SVG 1.1//EN" "http://www.w3.org/Graphics/SVG/1.1/DTD/svg11.dtd">
<svg xmlns="http://www.w3.org/2000/svg" version="1.1" width="64px" height="64px" style="shape-rendering:geometricPrecision; text-rendering:geometricPrecision; image-rendering:optimizeQuality; fill-rule:evenodd; clip-rule:evenodd" xmlns:xlink="http://www.w3.org/1999/xlink">
<g><path style="opacity:0.826" fill="#050300" d="M 28.5,-0.5 C 30.5,-0.5 32.5,-0.5 34.5,-0.5C 43.8635,6.85517 53.5301,13.8552 63.5,20.5C 63.5,22.1667 63.5,23.8333 63.5,25.5C 62.1667,25.5 60.8333,25.5 59.5,25.5C 59.8131,38.2464 59.4798,50.913 58.5,63.5C 40.5,63.5 22.5,63.5 4.5,63.5C 3.52021,50.913 3.18688,38.2464 3.5,25.5C 2.16667,25.5 0.833333,25.5 -0.5,25.5C -0.5,23.8333 -0.5,22.1667 -0.5,20.5C 9.46985,13.8552 19.1365,6.85517 28.5,-0.5 Z"/></g>
<g><path style="opacity:1" fill="#e0c001" d="M 30.5,1.5 C 41.1241,8.15385 51.4574,15.3205 61.5,23C 60.2068,23.49 58.8734,23.6567 57.5,23.5C 57.5,36.1667 57.5,48.8333 57.5,61.5C 40.1667,61.5 22.8333,61.5 5.5,61.5C 5.5,48.8333 5.5,36.1667 5.5,23.5C 4.12656,23.6567 2.79323,23.49 1.5,23C 11.3497,15.97 21.0163,8.80336 30.5,1.5 Z"/></g>
<g><path style="opacity:1" fill="#1c150f" d="M 37.5,13.5 C 40.2492,13.2739 42.9159,13.6072 45.5,14.5C 46.4287,15.6888 46.762,17.0222 46.5,18.5C 49.1178,18.7792 51.6178,19.4459 54,20.5C 54.6667,33.1667 54.6667,45.8333 54,58.5C 46.5763,59.1587 39.0763,59.492 31.5,59.5C 23.9237,59.492 16.4237,59.1587 9,58.5C 8.33333,45.8333 8.33333,33.1667 9,20.5C 10.3988,19.7734 11.8988,19.2734 13.5,19C 20.9096,18.7614 28.243,18.5947 35.5,18.5C 35.3915,16.4862 36.0582,14.8195 37.5,13.5 Z"/></g>
<g><path style="opacity:1" fill="#ce2841" d="M 37.5,15.5 C 39.924,15.1924 42.2573,15.5258 44.5,16.5C 43.3333,16.8333 42.1667,17.1667 41,17.5C 39.3189,17.3917 38.1522,16.7251 37.5,15.5 Z"/></g>
<g><path style="opacity:1" fill="#e6e6e6" d="M 14.5,20.5 C 19.7616,20.1953 24.9283,20.5286 30,21.5C 30.6667,32.1667 30.6667,42.8333 30,53.5C 24.9283,52.5286 19.7616,52.1953 14.5,52.5C 14.5,41.8333 14.5,31.1667 14.5,20.5 Z"/></g>
<g><path style="opacity:1" fill="#e6e8e9" d="M 46.5,20.5 C 48.4762,30.7809 49.1428,41.4476 48.5,52.5C 43.2384,52.1953 38.0717,52.5286 33,53.5C 32.5002,42.8385 32.3335,32.1719 32.5,21.5C 33.5,21.5 34.5,21.5 35.5,21.5C 35.334,26.8437 35.5006,32.1771 36,37.5C 37.3088,39.9757 39.1421,41.9757 41.5,43.5C 43.1924,41.6414 44.6924,39.6414 46,37.5C 46.4994,31.8431 46.6661,26.1764 46.5,20.5 Z"/></g>
<g><path style="opacity:1" fill="#c3283e" d="M 29.5,55.5 C 23.3554,56.4902 17.0221,56.8235 10.5,56.5C 10.1678,44.8143 10.5011,33.1477 11.5,21.5C 12.4988,32.4798 12.8321,43.4798 12.5,54.5C 18.358,54.1778 24.0247,54.5111 29.5,55.5 Z"/></g>
<g><path style="opacity:1" fill="#ac1c36" d="M 50.5,21.5 C 52.4791,33.1201 53.1458,45.1201 52.5,57.5C 45.8002,57.83 39.1335,57.4967 32.5,56.5C 32.7093,55.914 33.0426,55.414 33.5,55C 39.1569,54.5006 44.8236,54.3339 50.5,54.5C 50.5,43.5 50.5,32.5 50.5,21.5 Z"/></g>
<g><path style="opacity:1" fill="#a18d00" d="M 37.5,23.5 C 38.5,23.5 39.5,23.5 40.5,23.5C 40.5,27.1667 40.5,30.8333 40.5,34.5C 39.5,34.5 38.5,34.5 37.5,34.5C 37.5,30.8333 37.5,27.1667 37.5,23.5 Z"/></g>
<g><path style="opacity:1" fill="#d09e06" d="M 42.5,23.5 C 43.7868,24.8714 44.4535,26.7047 44.5,29C 44.1667,30.8333 43.8333,32.6667 43.5,34.5C 42.5108,30.8927 42.1774,27.226 42.5,23.5 Z"/></g>
<g><path style="opacity:1" fill="#3a3a3a" d="M 17.5,25.5 C 20.6399,24.3592 23.9733,24.1925 27.5,25C 24.2781,26.8175 20.9447,26.9842 17.5,25.5 Z"/></g>
<g><path style="opacity:1" fill="#0d0d0d" d="M 17.5,29.5 C 20.5719,29.1826 23.5719,29.5159 26.5,30.5C 25,30.8333 23.5,31.1667 22,31.5C 20.0145,31.4313 18.5145,30.7647 17.5,29.5 Z"/></g>
<g><path style="opacity:1" fill="#1b1b1b" d="M 17.5,34.5 C 20.8984,34.1796 24.2317,34.513 27.5,35.5C 25.8333,35.8333 24.1667,36.1667 22.5,36.5C 20.3603,36.4439 18.6936,35.7773 17.5,34.5 Z"/></g>
<g><path style="opacity:1" fill="#cbb28e" d="M 38.5,36.5 C 43.4964,36.07 44.3298,37.4034 41,40.5C 39.5187,39.5291 38.6854,38.1958 38.5,36.5 Z"/></g>
<g><path style="opacity:1" fill="#3a3a3a" d="M 17.5,41.5 C 20.6399,40.3592 23.9733,40.1925 27.5,41C 24.2781,42.8175 20.9447,42.9842 17.5,41.5 Z"/></g>
<g><path style="opacity:1" fill="#0d0d0d" d="M 17.5,45.5 C 20.5719,45.1826 23.5719,45.5159 26.5,46.5C 25,46.8333 23.5,47.1667 22,47.5C 20.0145,47.4313 18.5145,46.7647 17.5,45.5 Z"/></g>
<g><path style="opacity:1" fill="#0e0e0e" d="M 36.5,45.5 C 39.5719,45.1826 42.5719,45.5159 45.5,46.5C 44,46.8333 42.5,47.1667 41,47.5C 39.0145,47.4313 37.5145,46.7647 36.5,45.5 Z"/></g>
<g><path style="opacity:1" fill="#8c1c2d" d="M 29.5,55.5 C 30.0431,55.56 30.3764,55.8933 30.5,56.5C 23.6778,57.8181 17.0112,57.8181 10.5,56.5C 17.0221,56.8235 23.3554,56.4902 29.5,55.5 Z"/></g>
</svg>
